HIERARCHY
ROOT Hips
{
	OFFSET 0.000000 0.000000 0.000000 
	CHANNELS 6 Xposition Yposition Zposition Zrotation Yrotation Xrotation
	JOINT LeftUpLeg
	{
		OFFSET 1.363060 -1.794630 0.839290 
		CHANNELS 3 Zrotation Yrotation Xrotation
		JOINT LeftLeg
		{
			OFFSET 2.448110 -6.726130 0.000000 
			CHANNELS 3 Zrotation Yrotation Xrotation
			JOINT LeftFoot
			{
				OFFSET 2.562200 -7.039590 0.000000 
				CHANNELS 3 Zrotation Yrotation Xrotation
				JOINT LeftToeBase
				{
					OFFSET 0.157640 -0.433110 2.322550 
					CHANNELS 3 Zrotation Yrotation Xrotation
					End Site
					{
						OFFSET 0.000000 0.000000 0.000000 
					}
				}
			}
		}
	}
	JOINT RightUpLeg
	{
		OFFSET -1.305520 -1.794630 0.839290 
		CHANNELS 3 Zrotation Yrotation Xrotation
		JOINT RightLeg
		{
			OFFSET -2.542530 -6.985550 0.000000 
			CHANNELS 3 Zrotation Yrotation Xrotation
			JOINT RightFoot
			{
				OFFSET -2.568260 -7.056230 0.000000 
				CHANNELS 3 Zrotation Yrotation Xrotation
				JOINT RightToeBase
				{
					OFFSET -0.164730 -0.452590 2.363150 
					CHANNELS 3 Zrotation Yrotation Xrotation
					End Site
					{
						OFFSET 0.000000 0.000000 0.000000 
					}
				}
			}
		}
	}
	JOINT Spine
	{
		OFFSET 0.028270 2.035590 -0.193380 
		CHANNELS 3 Zrotation Yrotation Xrotation
		JOINT Spine1
		{
			OFFSET 0.056720 2.048850 -0.042750 
			CHANNELS 3 Zrotation Yrotation Xrotation
			JOINT Neck1
			{
				OFFSET -0.054170 1.746240 0.172020 
				CHANNELS 3 Zrotation Yrotation Xrotation
				JOINT Head
				{
					OFFSET 0.104070 1.761360 -0.123970 
					CHANNELS 3 Zrotation Yrotation Xrotation
					End Site
					{
						OFFSET 0.000000 0.000000 0.000000 
					}
				}
			}
			JOINT LeftArm
			{
				OFFSET 3.362410 1.200890 -0.311210 
				CHANNELS 3 Zrotation Yrotation Xrotation
				JOINT LeftForeArm
				{
					OFFSET 4.983000 -0.000000 -0.000000 
					CHANNELS 3 Zrotation Yrotation Xrotation
					JOINT LeftHand
					{
						OFFSET 3.483560 -0.000000 -0.000000 
						CHANNELS 3 Zrotation Yrotation Xrotation
						JOINT LeftHandIndex1
						{
							OFFSET 0.715260 -0.000000 -0.000000 
							CHANNELS 3 Zrotation Yrotation Xrotation
							End Site
							{
								OFFSET 0.000000 0.000000 0.000000 
							}
						}
					}
				}
			}
			JOINT RightArm
			{
				OFFSET -3.136600 1.374050 -0.404650 
				CHANNELS 3 Zrotation Yrotation Xrotation
				JOINT RightForeArm
				{
					OFFSET -5.241900 -0.000000 -0.000000 
					CHANNELS 3 Zrotation Yrotation Xrotation
					JOINT RightHand
					{
						OFFSET -3.444170 -0.000000 -0.000000 
						CHANNELS 3 Zrotation Yrotation Xrotation
						JOINT RightHandIndex1
						{
							OFFSET -0.622530 -0.000000 -0.000000 
							CHANNELS 3 Zrotation Yrotation Xrotation
							End Site
							{
								OFFSET 0.000000 0.000000 0.000000 
							}
						}
					}
				}
			}
		}
	}
}
MOTION
Frames: 12
Frame Time: 0.041667
7.650311 20.111971 -24.182601 -2.356835 -1.322012 -20.161035 -84.879922 -7.412741 21.775367 15.873942 4.706113 39.519099 -7.884422 -31.646380 -56.569246 0.913300 6.089400 17.044100 87.118834 -19.733501 32.788477 -16.876521 -6.426738 12.417075 -6.699674 2.834284 -69.125860 -0.206600 2.926200 -8.073400 6.710889 -7.078556 86.749685 -9.812869 -1.491250 -22.359241 12.463915 -8.181940 -21.507784 2.465700 -6.366600 2.067900 -105.657229 -2.746071 24.028121 46.687851 -54.282720 -5.418878 1.426045 1.841141 -6.738817 -7.125000 0.000000 0.000000 111.536423 0.733668 10.341725 -42.418014 46.532059 -6.119589 -5.112163 -15.761891 14.036646 7.125000 0.000000 0.000000 
7.651671 20.108821 -24.184892 -2.684621 -1.554084 -19.948056 -84.873370 -7.284203 21.711717 15.911052 4.656125 39.302345 -7.754760 -31.560662 -56.785570 0.831900 5.818600 16.258900 87.271996 -19.523935 32.685941 -16.955807 -6.351336 12.254747 -6.626628 3.036294 -69.007612 -0.184300 2.765200 -7.625800 8.295085 -7.966983 86.128386 -10.062355 -1.569104 -21.657254 9.954061 -7.397626 -26.528846 2.510800 -6.158100 1.539000 -105.716490 -2.613108 24.203423 46.880275 -54.009604 -5.318994 1.255111 1.814900 -6.576487 -7.125000 0.000000 0.000000 111.190421 0.579261 11.157343 -42.716391 46.196327 -6.071970 -4.138436 -15.677761 12.586853 7.125000 0.000000 0.000000 
7.652888 20.105600 -24.188185 -2.746817 -1.823639 -19.675165 -84.887389 -7.007471 21.708126 15.965913 4.600005 38.878554 -7.528654 -31.359069 -57.096969 0.867300 5.938000 16.604800 87.715753 -18.959553 32.456003 -17.113188 -6.294164 12.377117 -6.647966 3.061854 -69.055629 -0.201900 2.893000 -7.980900 7.827909 -7.567794 86.173430 -9.705047 -1.348154 -21.328968 7.459637 -7.509250 -28.213122 2.303400 -6.033400 1.409500 -105.410493 -2.888585 24.859785 46.958314 -54.055388 -5.303624 1.091391 1.776313 -6.673213 -7.125000 0.000000 0.000000 110.955677 0.765448 11.788244 -42.782976 46.358153 -5.974507 -3.079028 -15.479674 11.139292 7.125000 0.000000 0.000000 
7.654105 20.100803 -24.188185 -3.051134 -2.286058 -19.684354 -84.698332 -6.113599 22.139214 15.980360 4.543166 38.178975 -7.400106 -31.307307 -57.380646 0.796900 5.698000 15.910600 87.990032 -18.539866 32.297561 -17.216378 -6.292325 12.610121 -6.679772 3.031112 -69.021466 -0.253300 3.238100 -8.942300 8.667944 -8.029604 86.143459 -10.242106 -1.422533 -21.561854 8.882656 -7.561602 -26.753640 2.386500 -6.117400 1.537200 -105.228349 -2.569297 25.187490 47.380082 -54.155541 -5.246229 0.774180 1.660929 -6.407630 -7.125000 0.000000 0.000000 110.896241 0.517112 12.332512 -43.006070 46.284598 -5.809648 -1.736096 -15.068504 9.843826 7.125000 0.000000 0.000000 
7.654749 20.097081 -24.190261 -3.248840 -2.692703 -19.622030 -84.557637 -5.445945 22.397225 15.996863 4.498182 37.625563 -7.269244 -31.232755 -57.634628 0.735300 5.478200 15.277700 88.251091 -18.096046 32.138295 -17.323451 -6.276928 12.893387 -6.663150 3.136238 -68.968932 -0.279500 3.400200 -9.394900 8.940191 -8.113378 86.114977 -10.412771 -1.368583 -21.536442 8.951978 -7.505683 -26.926305 2.391000 -6.105100 1.515700 -104.986228 -2.464976 25.587975 47.701059 -54.250812 -5.240032 0.546255 1.618638 -6.308372 -7.125000 0.000000 0.000000 110.794644 0.458140 12.865747 -43.184204 46.233834 -5.591521 -0.460821 -14.563310 8.713324 7.125000 0.000000 0.000000 
7.654892 20.093573 -24.193411 -3.419695 -3.159739 -19.594546 -84.387799 -4.731584 22.674233 15.996111 4.470346 37.083562 -7.148583 -31.164432 -57.874767 0.664700 5.214200 14.520600 88.500040 -17.576841 31.958364 -17.435484 -6.284429 13.406589 -6.624750 3.308236 -68.900195 -0.311300 3.586700 -9.916800 9.025543 -8.078956 86.159800 -10.570254 -1.287755 -21.581084 9.548737 -7.430699 -26.637183 2.421300 -6.105500 1.540700 -104.718263 -2.348270 25.952761 48.042842 -54.394619 -5.267518 0.353894 1.591163 -6.238490 -7.125000 0.000000 0.000000 110.743092 0.435793 13.275446 -43.317837 46.180480 -5.353550 0.662382 -14.013299 7.851492 7.125000 0.000000 0.000000 
7.654677 20.090709 -24.197778 -3.578706 -3.639583 -19.578447 -84.232555 -4.104224 22.902071 15.972705 4.469152 36.644311 -7.044554 -31.106042 -58.077431 0.606900 4.986600 13.870400 88.705459 -17.010674 31.761665 -17.554268 -6.313270 14.130178 -6.561343 3.536977 -68.813343 -0.349500 3.798300 -10.509900 9.163787 -8.086369 86.194181 -10.748239 -1.219968 -21.683678 10.397520 -7.306160 -26.230084 2.480000 -6.098900 1.570000 -104.478756 -2.181269 26.231682 48.379839 -54.546095 -5.324072 0.224414 1.579109 -6.179787 -7.125000 0.000000 0.000000 110.708598 0.423821 13.560094 -43.404650 46.096281 -5.148199 1.480467 -13.542015 7.289296 7.125000 0.000000 0.000000 
7.653962 20.088419 -24.203505 -3.723329 -4.094960 -19.527473 -84.126324 -3.685197 23.005795 15.930416 4.497536 36.395277 -6.957635 -31.052217 -58.229730 0.584200 4.894000 13.606400 88.899376 -16.360210 31.521131 -17.686325 -6.363310 15.067258 -6.487446 3.784217 -68.722648 -0.392800 4.024300 -11.145100 9.366142 -8.148215 86.202997 -10.916934 -1.166326 -21.799669 11.225928 -7.145069 -25.883629 2.548600 -6.074000 1.590400 -104.273299 -1.999533 26.444345 48.674145 -54.697272 -5.414055 0.178336 1.596038 -6.140818 -7.125000 0.000000 0.000000 110.678504 0.454231 13.708877 -43.421143 46.008528 -5.008030 1.940168 -13.238817 7.002250 7.125000 0.000000 0.000000 
7.652816 20.086772 -24.210377 -3.842011 -4.484156 -19.417509 -84.092122 -3.540533 22.946373 15.875743 4.555998 36.376710 -6.880500 -30.988959 -58.331717 0.598700 4.953200 13.775100 89.100275 -15.611391 31.226859 -17.835723 -6.432627 16.188012 -6.420249 3.999438 -68.646146 -0.439400 4.253600 -11.791400 9.585151 -8.237386 86.195922 -11.044118 -1.123451 -21.933084 11.941047 -6.971896 -25.610906 2.615900 -6.035000 1.600500 -104.100383 -1.807195 26.611949 48.915590 -54.825491 -5.525514 0.213333 1.626718 -6.127308 -7.125000 0.000000 0.000000 110.657207 0.509526 13.719937 -43.388131 45.941660 -4.936520 2.096095 -13.103049 6.934079 7.125000 0.000000 0.000000 
7.651313 20.085698 -24.217894 -3.922143 -4.789263 -19.258669 -84.125502 -3.641142 22.743217 15.815199 4.639333 36.555553 -6.819690 -30.920317 -58.373453 0.664200 5.212200 14.514900 89.282759 -14.811418 30.900422 -17.997732 -6.513728 17.414091 -6.363793 4.159218 -68.579875 -0.490900 4.492400 -12.466100 9.750916 -8.312154 86.189474 -11.091612 -1.080623 -22.084087 12.509642 -6.820500 -25.415298 2.673100 -5.996500 1.603300 -103.965148 -1.634938 26.748941 49.079915 -54.904630 -5.628047 0.302982 1.641089 -6.139155 -7.125000 0.000000 0.000000 110.658906 0.603981 13.570871 -43.297014 45.910992 -4.921365 1.997940 -13.108940 7.067478 7.125000 0.000000 0.000000 
7.649308 20.085340 -24.225697 -3.960380 -5.027241 -19.066984 -84.202756 -3.917492 22.435472 15.752872 4.740983 36.877106 -6.772938 -30.844850 -58.364916 0.776900 5.627600 15.707600 89.436292 -13.988181 30.553850 -18.165418 -6.598979 18.692695 -6.312356 4.276018 -68.512004 -0.543000 4.721200 -13.115100 9.795604 -8.321390 86.206671 -11.043849 -1.019169 -22.240782 12.923224 -6.711198 -25.266282 2.713700 -5.965600 1.605200 -103.847078 -1.505086 26.887832 49.181456 -54.948644 -5.716111 0.408589 1.650037 -6.196591 -7.125000 0.000000 0.000000 110.685829 0.730526 13.324894 -43.191749 45.931527 -4.909911 1.880519 -13.109779 7.257542 7.125000 0.000000 0.000000 
7.646874 20.085483 -24.233715 -3.955126 -5.238590 -18.850978 -84.294803 -4.278985 22.072472 15.698552 4.848573 37.260634 -6.719920 -30.740835 -58.342306 0.908900 6.075200 17.002700 89.581893 -13.125609 30.177272 -18.330434 -6.684221 20.015651 -6.260163 4.377176 -68.433111 -0.584200 4.893900 -13.606300 9.586912 -8.166883 86.276853 -10.862601 -0.904289 -22.360190 13.113814 -6.640972 -25.269938 2.727900 -5.942500 1.601100 -103.716763 -1.467381 27.056695 49.228431 -54.969990 -5.784281 0.503549 1.652468 -6.312508 -7.125000 0.000000 0.000000 110.743227 0.914048 12.966076 -43.070808 46.045081 -4.910540 1.749298 -13.120406 7.446479 7.125000 0.000000 0.000000 
